<svg id="visual" viewBox="0 0 900 600" width="900" height="600" xmlns="http://www.w3.org/2000/svg" xmlns:xlink="http://www.w3.org/1999/xlink" version="1.1"><g stroke-width="1" stroke-linejoin="bevel"><path d="M416.7 343L514.3 244L366.7 265Z" fill="#2b271c" stroke="#2b271c"></path><path d="M416.7 343L503.3 386L514.3 244Z" fill="#161616" stroke="#161616"></path><path d="M514.3 244L511.3 136L366.7 265Z" fill="#29251b" stroke="#29251b"></path><path d="M511.3 136L419.7 95L366.7 265Z" fill="#1a1917" stroke="#1a1917"></path><path d="M258.1 132L251.1 250L366.7 265Z" fill="#24221a" stroke="#24221a"></path><path d="M366.7 265L235.1 390L416.7 343Z" fill="#27231b" stroke="#27231b"></path><path d="M503.3 386L641.9 326L514.3 244Z" fill="#201e19" stroke="#201e19"></path><path d="M514.3 244L659.9 229L511.3 136Z" fill="#29251b" stroke="#29251b"></path><path d="M235.1 390L402.7 474L416.7 343Z" fill="#29251b" stroke="#29251b"></path><path d="M416.7 343L402.7 474L503.3 386Z" fill="#1a1917" stroke="#1a1917"></path><path d="M503.3 386L632.9 479L641.9 326Z" fill="#1c1b18" stroke="#1c1b18"></path><path d="M641.9 326L659.9 229L514.3 244Z" fill="#201e19" stroke="#201e19"></path><path d="M419.7 95L258.1 132L366.7 265Z" fill="#1a1917" stroke="#1a1917"></path><path d="M402.7 474L508.3 497L503.3 386Z" fill="#2b271c" stroke="#2b271c"></path><path d="M152.6 364L235.1 390L251.1 250Z" fill="#27231b" stroke="#27231b"></path><path d="M251.1 250L235.1 390L366.7 265Z" fill="#201e19" stroke="#201e19"></path><path d="M659.9 229L664.9 111L511.3 136Z" fill="#161616" stroke="#161616"></path><path d="M524.3 0L367.7 0L419.7 95Z" fill="#27231b" stroke="#27231b"></path><path d="M524.3 0L419.7 95L511.3 136Z" fill="#1e1c18" stroke="#1e1c18"></path><path d="M419.7 95L367.7 0L258.1 132Z" fill="#24221a" stroke="#24221a"></path><path d="M235.1 390L283.1 503L402.7 474Z" fill="#1c1b18" stroke="#1c1b18"></path><path d="M402.7 474L414.7 600L508.3 497Z" fill="#201e19" stroke="#201e19"></path><path d="M508.3 497L632.9 479L503.3 386Z" fill="#29251b" stroke="#29251b"></path><path d="M641.9 326L768.4 260L659.9 229Z" fill="#27231b" stroke="#27231b"></path><path d="M664.9 111L524.3 0L511.3 136Z" fill="#1c1b18" stroke="#1c1b18"></path><path d="M94.6 121L153.6 254L258.1 132Z" fill="#201e19" stroke="#201e19"></path><path d="M258.1 132L153.6 254L251.1 250Z" fill="#24221a" stroke="#24221a"></path><path d="M235.1 390L95.6 495L283.1 503Z" fill="#24221a" stroke="#24221a"></path><path d="M153.6 254L152.6 364L251.1 250Z" fill="#1e1c18" stroke="#1e1c18"></path><path d="M792.4 355L768.4 260L641.9 326Z" fill="#201e19" stroke="#201e19"></path><path d="M659.9 229L801.4 127L664.9 111Z" fill="#22201a" stroke="#22201a"></path><path d="M367.7 0L256.1 0L258.1 132Z" fill="#27231b" stroke="#27231b"></path><path d="M283.1 503L414.7 600L402.7 474Z" fill="#161616" stroke="#161616"></path><path d="M508.3 497L635.9 600L632.9 479Z" fill="#22201a" stroke="#22201a"></path><path d="M414.7 600L506.3 600L508.3 497Z" fill="#27231b" stroke="#27231b"></path><path d="M790.4 0L644.9 0L664.9 111Z" fill="#161616" stroke="#161616"></path><path d="M664.9 111L644.9 0L524.3 0Z" fill="#22201a" stroke="#22201a"></path><path d="M632.9 479L792.4 355L641.9 326Z" fill="#181817" stroke="#181817"></path><path d="M745.4 501L792.4 355L632.9 479Z" fill="#1e1c18" stroke="#1e1c18"></path><path d="M283.1 503L286.1 600L414.7 600Z" fill="#1e1c18" stroke="#1e1c18"></path><path d="M106.6 600L286.1 600L283.1 503Z" fill="#29251b" stroke="#29251b"></path><path d="M152.6 0L94.6 121L258.1 132Z" fill="#1a1917" stroke="#1a1917"></path><path d="M153.6 254L0 335L152.6 364Z" fill="#29251b" stroke="#29251b"></path><path d="M635.9 600L745.4 501L632.9 479Z" fill="#1c1b18" stroke="#1c1b18"></path><path d="M506.3 600L635.9 600L508.3 497Z" fill="#29251b" stroke="#29251b"></path><path d="M768.4 260L801.4 127L659.9 229Z" fill="#161616" stroke="#161616"></path><path d="M900 256L801.4 127L768.4 260Z" fill="#2b271c" stroke="#2b271c"></path><path d="M256.1 0L152.6 0L258.1 132Z" fill="#22201a" stroke="#22201a"></path><path d="M0 455L95.6 495L152.6 364Z" fill="#2b271c" stroke="#2b271c"></path><path d="M152.6 364L95.6 495L235.1 390Z" fill="#22201a" stroke="#22201a"></path><path d="M801.4 127L790.4 0L664.9 111Z" fill="#27231b" stroke="#27231b"></path><path d="M0 95L0 223L94.6 121Z" fill="#181817" stroke="#181817"></path><path d="M94.6 121L0 223L153.6 254Z" fill="#22201a" stroke="#22201a"></path><path d="M0 223L0 335L153.6 254Z" fill="#1c1b18" stroke="#1c1b18"></path><path d="M900 352L900 256L792.4 355Z" fill="#161616" stroke="#161616"></path><path d="M792.4 355L900 256L768.4 260Z" fill="#1a1917" stroke="#1a1917"></path><path d="M801.4 127L900 0L790.4 0Z" fill="#29251b" stroke="#29251b"></path><path d="M900 466L900 352L792.4 355Z" fill="#24221a" stroke="#24221a"></path><path d="M0 600L106.6 600L95.6 495Z" fill="#181817" stroke="#181817"></path><path d="M95.6 495L106.6 600L283.1 503Z" fill="#201e19" stroke="#201e19"></path><path d="M0 0L0 95L94.6 121Z" fill="#1a1917" stroke="#1a1917"></path><path d="M0 335L0 455L152.6 364Z" fill="#161616" stroke="#161616"></path><path d="M900 256L900 123L801.4 127Z" fill="#2b271c" stroke="#2b271c"></path><path d="M635.9 600L794.4 600L745.4 501Z" fill="#22201a" stroke="#22201a"></path><path d="M745.4 501L900 466L792.4 355Z" fill="#29251b" stroke="#29251b"></path><path d="M794.4 600L900 466L745.4 501Z" fill="#181817" stroke="#181817"></path><path d="M152.6 0L0 0L94.6 121Z" fill="#24221a" stroke="#24221a"></path><path d="M900 123L900 0L801.4 127Z" fill="#22201a" stroke="#22201a"></path><path d="M0 455L0 600L95.6 495Z" fill="#24221a" stroke="#24221a"></path><path d="M794.4 600L900 600L900 466Z" fill="#181817" stroke="#181817"></path></g></svg>